<?xml version="1.0" standalone="no"?>
<!DOCTYPE svg PUBLIC "-//W3C//DTD SVG 20010904//EN"
 "http://www.w3.org/TR/2001/REC-SVG-20010904/DTD/svg10.dtd">
<svg version="1.0" xmlns="http://www.w3.org/2000/svg"
 width="1200.000000pt" height="1200.000000pt" viewBox="0 0 1200.000000 1200.000000"
 preserveAspectRatio="xMidYMid meet">

<g transform="translate(0.000000,1200.000000) scale(0.100000,-0.100000)"
fill="#000000" stroke="none">
<path d="M5795 11499 c-341 -15 -719 -82 -1060 -186 -60 -19 -60 -19 -63 -59
l-3 -41 67 -7 c266 -27 526 -213 648 -461 105 -212 114 -477 24 -694 -90 -217
-281 -396 -501 -472 -131 -45 -243 -55 -464 -41 -689 44 -1684 261 -2798 612
-456 144 -1010 345 -1350 491 -87 38 -164 69 -171 69 -24 0 -25 -32 -2 -49 63
-43 292 -220 443 -342 1054 -850 2202 -2026 2692 -2759 186 -279 233 -402 233
-615 0 -388 -254 -714 -635 -816 -111 -30 -297 -30 -410 0 -100 26 -241 96
-322 161 -56 45 -148 145 -171 186 -8 15 -11 15 -40 0 -19 -10 -32 -24 -32
-36 0 -11 18 -88 39 -172 186 -727 551 -1378 1071 -1912 69 -70 146 -146 172
-168 47 -39 47 -39 78 -23 23 12 30 21 24 33 -63 148 -89 285 -81 422 7 119
28 201 79 310 137 297 426 480 757 480 204 0 363 -54 522 -176 115 -88 185
-186 302 -419 311 -622 646 -1693 896 -2865 92 -430 189 -1003 221 -1295 16
-156 19 -165 40 -165 21 0 21 3 45 205 120 1017 486 2533 846 3498 125 335
285 685 382 835 121 186 300 312 515 363 72 18 110 20 222 17 119 -4 146 -8
230 -37 167 -56 303 -152 403 -283 174 -228 222 -525 128 -793 -16 -44 -32
-88 -35 -97 -6 -12 1 -21 24 -33 31 -16 31 -16 78 23 26 22 103 98 172 168
520 534 885 1186 1071 1912 21 84 39 161 39 172 0 12 -13 26 -32 36 -29 15
-32 15 -40 0 -23 -41 -115 -141 -171 -186 -80 -64 -220 -134 -322 -161 -113
-30 -299 -30 -410 0 -382 102 -635 427 -635 816 0 226 59 368 292 702 564 809
1907 2138 2948 2918 80 60 146 110 148 110 7 5 -12 35 -22 35 -7 0 -74 -27
-150 -60 -666 -289 -1695 -624 -2581 -840 -701 -172 -1381 -280 -1756 -280
-228 0 -436 81 -596 234 -391 370 -339 1006 107 1306 108 73 296 140 392 140
l39 0 -3 42 -3 42 -75 23 c-297 93 -690 164 -975 178 -246 11 -314 12 -480 4z
m-1935 -2899 c597 -150 1415 -222 2345 -206 521 8 848 29 1227 77 295 37 624
101 841 164 72 21 101 19 57 -5 -25 -13 -276 -283 -394 -425 -632 -753 -1405
-2090 -1751 -3030 -62 -167 -175 -536 -175 -570 0 -8 -3 -15 -7 -15 -5 0 -23
57 -42 128 -163 615 -522 1390 -1054 2277 -282 470 -581 899 -847 1215 -118
140 -377 420 -396 427 -8 3 -14 9 -14 13 0 4 21 2 48 -6 26 -8 99 -28 162 -44z"/>
</g>
</svg>
